# Blender 4.4.3
# www.blender.org
mtllib testcharacter.mtl
o Char
v 0.420123 2.755858 -0.420123
v 0.604252 -0.004748 -0.406185
v 0.420123 2.755858 0.420123
v 0.604252 -0.004748 0.406185
v -0.420123 2.755858 -0.420123
v -0.604252 -0.004748 -0.406185
v -0.420123 2.755858 0.420123
v -0.604252 -0.004748 0.406185
v 0.450133 2.008479 -0.450133
v -0.450133 2.008479 0.450133
v 0.450133 2.008479 0.450133
v -0.450133 2.008479 -0.450133
v 0.842351 1.349742 -0.628234
v 0.842351 1.349742 0.628234
v -0.842351 1.349742 -0.628234
v -0.842351 1.349742 0.628234
v 0.508992 0.411124 -0.406185
v 0.508992 0.411124 0.406185
v -0.508992 0.411124 -0.406185
v -0.508992 0.411124 0.406185
v -0.297573 1.778152 0.297573
v 0.297573 1.778152 -0.297573
v 0.297573 1.778152 0.297573
v -0.297573 1.778152 -0.297573
vn -0.0000 1.0000 -0.0000
vn -0.0000 0.0401 0.9992
vn -0.9992 0.0401 -0.0000
vn -0.0000 -1.0000 -0.0000
vn 0.9992 0.0401 -0.0000
vn -0.0000 0.0401 -0.9992
vn -0.0000 -0.5522 -0.8337
vn 0.8337 -0.5522 -0.0000
vn -0.8337 -0.5522 -0.0000
vn -0.0000 -0.5522 0.8337
vn -0.0000 -0.2302 0.9731
vn -0.9423 -0.3347 -0.0000
vn 0.9423 -0.3347 -0.0000
vn -0.0000 -0.2302 -0.9731
vn -0.0000 -0.0000 -1.0000
vn 0.9748 0.2233 -0.0000
vn -0.9748 0.2233 -0.0000
vn -0.0000 -0.0000 1.0000
vn -0.0000 0.6110 0.7916
vn -0.6182 0.7861 -0.0000
vn 0.6182 0.7861 -0.0000
vn -0.0000 0.6110 -0.7916
vt 0.625000 0.500000
vt 0.875000 0.500000
vt 0.875000 0.750000
vt 0.625000 0.750000
vt 0.546349 0.750000
vt 0.625000 1.000000
vt 0.546349 1.000000
vt 0.546349 0.000000
vt 0.625000 0.000000
vt 0.625000 0.250000
vt 0.546349 0.250000
vt 0.125000 0.500000
vt 0.375000 0.500000
vt 0.375000 0.750000
vt 0.125000 0.750000
vt 0.546349 0.500000
vt 0.530600 0.250000
vt 0.530600 0.500000
vt 0.530600 0.750000
vt 0.530600 0.000000
vt 0.530600 1.000000
vt 0.413351 0.750000
vt 0.514851 0.750000
vt 0.514851 1.000000
vt 0.413351 1.000000
vt 0.413351 0.000000
vt 0.514851 0.000000
vt 0.514851 0.250000
vt 0.413351 0.250000
vt 0.413351 0.500000
vt 0.514851 0.500000
vt 0.375000 0.250000
vt 0.375000 0.000000
vt 0.375000 1.000000
s 0
usemtl Material
f 1/1/1 5/2/1 7/3/1 3/4/1
f 11/5/2 3/4/2 7/6/2 10/7/2
f 10/8/3 7/9/3 5/10/3 12/11/3
f 6/12/4 2/13/4 4/14/4 8/15/4
f 9/16/5 1/1/5 3/4/5 11/5/5
f 12/11/6 5/10/6 1/1/6 9/16/6
f 24/17/7 12/11/7 9/16/7 22/18/7
f 22/18/8 9/16/8 11/5/8 23/19/8
f 21/20/9 10/8/9 12/11/9 24/17/9
f 23/19/10 11/5/10 10/7/10 21/21/10
f 18/22/11 14/23/11 16/24/11 20/25/11
f 20/26/12 16/27/12 15/28/12 19/29/12
f 17/30/13 13/31/13 14/23/13 18/22/13
f 19/29/14 15/28/14 13/31/14 17/30/14
f 6/32/15 19/29/15 17/30/15 2/13/15
f 2/13/16 17/30/16 18/22/16 4/14/16
f 8/33/17 20/26/17 19/29/17 6/32/17
f 4/14/18 18/22/18 20/25/18 8/34/18
f 14/23/19 23/19/19 21/21/19 16/24/19
f 16/27/20 21/20/20 24/17/20 15/28/20
f 13/31/21 22/18/21 23/19/21 14/23/21
f 15/28/22 24/17/22 22/18/22 13/31/22
