# Blender 4.4.3
# www.blender.org
o Character
v 0.173561 0.119075 -0.101643
v 0.133929 -0.262259 -0.069112
v 0.173561 0.119075 0.101643
v 0.133929 -0.262259 0.074696
v 0.095082 0.157700 0.090731
v 0.095082 0.157700 -0.089863
v 0.095082 0.208836 0.090731
v 0.095082 0.208836 -0.089863
v 0.107939 0.232029 0.103283
v 0.107939 0.232029 -0.090370
v 0.090536 0.378790 0.103283
v 0.107939 0.362446 -0.086975
v 0.044871 0.445357 0.063542
v 0.027808 -0.511673 -0.039629
v 0.044871 0.438257 -0.063542
v 0.105973 -0.511673 -0.039629
v 0.173561 -0.018468 -0.101643
v 0.105973 -0.511673 0.039629
v 0.173561 -0.018468 0.101643
v 0.027808 -0.511673 0.039629
v 0.258830 0.081171 -0.046740
v 0.258830 0.081171 0.046740
v 0.258830 -0.006508 -0.046740
v 0.258830 -0.006508 0.046740
v -0.000148 -0.262259 -0.069112
v -0.000148 0.119075 0.101643
v -0.000148 -0.262259 0.074696
v -0.000148 0.119075 -0.101643
v -0.000148 0.157700 0.090731
v -0.000148 0.157700 -0.089863
v -0.000148 0.208836 0.090731
v -0.000148 0.208836 -0.089863
v -0.000148 0.232029 0.103283
v -0.000148 0.232029 -0.103283
v -0.000148 0.393800 0.103283
v -0.000148 0.367188 -0.103283
v -0.000148 0.459348 0.063542
v -0.000148 0.452248 -0.063542
v -0.000148 -0.018468 -0.101643
v -0.000148 -0.018468 0.101643
v -0.173561 0.119075 -0.101643
v -0.133929 -0.262259 -0.069112
v -0.173561 0.119075 0.101643
v -0.133929 -0.262259 0.074696
v -0.095082 0.157700 0.090731
v -0.095082 0.157700 -0.089863
v -0.095082 0.208836 0.090731
v -0.095082 0.208836 -0.089863
v -0.107939 0.232029 0.103283
v -0.107939 0.232029 -0.090370
v -0.090536 0.378790 0.103283
v -0.107939 0.362446 -0.086975
v -0.044871 0.445357 0.063542
v -0.027808 -0.511673 -0.039629
v -0.044871 0.438257 -0.063542
v -0.105973 -0.511673 -0.039629
v -0.173561 -0.018468 -0.101643
v -0.105973 -0.511673 0.039629
v -0.173561 -0.018468 0.101643
v -0.027808 -0.511673 0.039629
v -0.258830 0.081171 -0.046740
v -0.258830 0.081171 0.046740
v -0.258830 -0.006508 -0.046740
v -0.258830 -0.006508 0.046740
v 0.000148 -0.262259 -0.069112
v 0.000148 0.119075 0.101643
v 0.000148 -0.262259 0.074696
v 0.000148 0.119075 -0.101643
v 0.000148 0.157700 0.090731
v 0.000148 0.157700 -0.089863
v 0.000148 0.208836 0.090731
v 0.000148 0.208836 -0.089863
v 0.000148 0.232029 0.103283
v 0.000148 0.232029 -0.103283
v 0.000148 0.393800 0.103283
v 0.000148 0.367188 -0.103283
v 0.000148 0.459348 0.063542
v 0.000148 0.452248 -0.063542
v 0.000148 -0.018468 -0.101643
v 0.000148 -0.018468 0.101643
vn 0.4416 0.8972 -0.0000
vn -0.9938 -0.1114 -0.0000
vn 0.5414 -0.0000 0.8408
vn -0.0000 -0.0000 -1.0000
vn -0.0000 0.2719 0.9623
vn 0.8746 -0.4848 -0.0000
vn -0.0000 -0.0000 1.0000
vn 1.0000 -0.0000 -0.0000
vn -0.0000 -0.4760 0.8795
vn -0.0000 -0.1392 0.9903
vn 0.9972 0.0621 0.0426
vn -0.0000 -1.0000 -0.0000
vn 0.7948 0.6068 -0.0012
vn -0.0000 -0.1174 -0.9931
vn 0.1156 0.5411 0.8330
vn -0.0000 -0.1323 -0.9912
vn 0.9870 -0.1605 -0.0000
vn 0.5414 -0.0000 -0.8408
vn 0.1389 -0.9903 -0.0000
vn 0.4062 0.9138 -0.0000
vn -0.0000 -0.1099 0.9939
vn 0.9938 -0.1114 -0.0000
vn 0.2963 0.9536 -0.0533
vn 0.1342 0.0127 -0.9909
vn 0.1461 0.4107 -0.9000
vn 0.0604 -0.3023 -0.9513
vn -0.0000 0.2917 -0.9565
vn -0.4416 0.8972 -0.0000
vn -0.5414 -0.0000 0.8408
vn -0.8746 -0.4848 -0.0000
vn -1.0000 -0.0000 -0.0000
vn -0.9972 0.0621 0.0426
vn -0.7948 0.6068 -0.0012
vn -0.1156 0.5411 0.8330
vn -0.9870 -0.1605 -0.0000
vn -0.5414 -0.0000 -0.8408
vn -0.1389 -0.9903 -0.0000
vn -0.4062 0.9138 -0.0000
vn -0.2963 0.9536 -0.0533
vn -0.1342 0.0127 -0.9909
vn -0.1461 0.4107 -0.9000
vn -0.0604 -0.3023 -0.9513
vt 0.080163 0.500155
vt 0.080163 0.308323
vt 0.137714 0.307668
vt 0.137714 0.478086
vt 0.737378 0.639487
vt 0.737378 0.819718
vt 0.620562 0.782722
vt 0.620562 0.683391
vt 0.887168 0.639487
vt 0.949923 0.639527
vt 0.933770 0.708559
vt 0.893765 0.708533
vt 0.467995 0.364895
vt 0.467995 0.307668
vt 0.595383 0.307668
vt 0.595383 0.364895
vt 0.207551 0.500155
vt 0.207551 0.478086
vt 0.767398 0.033424
vt 0.767398 0.259758
vt 0.755203 0.260420
vt 0.755203 0.017720
vt 0.137714 0.462502
vt 0.207551 0.462502
vt 0.790730 0.033439
vt 0.790730 0.259773
vt 0.942835 0.180282
vt 0.942835 0.250118
vt 0.923786 0.259547
vt 0.923786 0.180282
vt 0.046695 0.668882
vt 0.145019 0.668882
vt 0.124518 0.770303
vt 0.067196 0.770303
vt 0.851905 0.864024
vt 0.772640 0.864024
vt 0.785403 0.819298
vt 0.851905 0.814724
vt 0.695699 0.256128
vt 0.690425 0.017631
vt 0.124518 0.852340
vt 0.067196 0.852340
vt 0.772640 0.644741
vt 0.818890 0.643751
vt 0.818890 0.761510
vt 0.467995 0.484229
vt 0.566319 0.484229
vt 0.545818 0.604225
vt 0.488496 0.604225
vt 0.851905 0.757246
vt 0.133835 0.231601
vt 0.017631 0.272406
vt 0.017631 0.017631
vt 0.133836 0.051370
vt 0.933770 0.825714
vt 0.893765 0.825689
vt 0.949923 0.894301
vt 0.887168 0.894261
vt 0.888523 0.017631
vt 0.888523 0.228045
vt 0.825992 0.168094
vt 0.825992 0.071337
vt 0.017631 0.459896
vt 0.017631 0.371684
vt 0.017631 0.577334
vt 0.145019 0.577334
vt 0.251140 0.095317
vt 0.251140 0.194648
vt 0.851905 0.639487
vt 0.422197 0.900473
vt 0.342933 0.893368
vt 0.342933 0.837133
vt 0.422197 0.848079
vt 0.595485 0.934246
vt 0.582522 0.854981
vt 0.645623 0.854981
vt 0.641060 0.887996
vt 0.412769 0.910402
vt 0.342933 0.910402
vt 0.412769 0.931678
vt 0.342933 0.931678
vt 0.946865 0.017631
vt 0.946865 0.145019
vt 0.923786 0.145019
vt 0.923786 0.075183
vt 0.080163 0.542071
vt 0.207551 0.542071
vt 0.370201 0.500155
vt 0.312649 0.478086
vt 0.312649 0.307668
vt 0.370201 0.308323
vt 0.467995 0.639487
vt 0.585300 0.683434
vt 0.585300 0.782766
vt 0.467995 0.819718
vt 0.856765 0.307668
vt 0.844533 0.376744
vt 0.804074 0.376758
vt 0.793296 0.307691
vt 0.758034 0.364895
vt 0.630646 0.364895
vt 0.630646 0.307668
vt 0.758034 0.307668
vt 0.242813 0.500155
vt 0.242813 0.478086
vt 0.577018 0.033404
vt 0.588513 0.017708
vt 0.588513 0.260408
vt 0.577018 0.259738
vt 0.242813 0.462502
vt 0.312649 0.462502
vt 0.553422 0.033413
vt 0.553422 0.259746
vt 0.135043 0.966867
vt 0.115994 0.966867
vt 0.115994 0.887602
vt 0.135043 0.897031
vt 0.278606 0.668882
vt 0.258105 0.770303
vt 0.200783 0.770303
vt 0.180282 0.668882
vt 0.342933 0.801870
vt 0.342933 0.752570
vt 0.409435 0.757144
vt 0.422197 0.801870
vt 0.655162 0.017631
vt 0.648694 0.256133
vt 0.200783 0.852340
vt 0.258105 0.852340
vt 0.375947 0.699356
vt 0.375947 0.581597
vt 0.422197 0.582588
vt 0.758034 0.484229
vt 0.737533 0.604225
vt 0.680211 0.604225
vt 0.659710 0.484229
vt 0.342933 0.695093
vt 0.403218 0.231553
vt 0.403218 0.051323
vt 0.518159 0.017631
vt 0.518159 0.272405
vt 0.804074 0.493913
vt 0.844533 0.493899
vt 0.793296 0.562464
vt 0.856765 0.562442
vt 0.892027 0.307668
vt 0.954559 0.361374
vt 0.954559 0.458131
vt 0.892027 0.518082
vt 0.432733 0.371684
vt 0.432733 0.459896
vt 0.180282 0.577334
vt 0.307670 0.577334
vt 0.286403 0.194558
vt 0.286403 0.095227
vt 0.342933 0.577334
vt 0.467995 0.918322
vt 0.467995 0.865928
vt 0.547260 0.854981
vt 0.547260 0.911216
vt 0.030594 0.887602
vt 0.076169 0.933852
vt 0.080732 0.966867
vt 0.017631 0.966867
vt 0.477424 0.928250
vt 0.547260 0.928250
vt 0.477424 0.949526
vt 0.547260 0.949526
vt 0.737378 0.982369
vt 0.714299 0.924817
vt 0.714299 0.854981
vt 0.737378 0.854981
vt 0.370201 0.542071
vt 0.242813 0.542071
s 0
f 3/1/1 1/2/1 6/3/1 5/4/1
f 27/5/2 25/6/2 14/7/2 20/8/2
f 3/9/3 19/10/3 24/11/3 22/12/3
f 39/13/4 28/14/4 1/15/4 17/16/4
f 26/17/5 3/1/5 5/4/5 29/18/5
f 7/19/6 8/20/6 10/21/6 9/22/6
f 29/18/7 5/4/7 7/23/7 31/24/7
f 5/25/8 6/26/8 8/20/8 7/19/8
f 31/27/9 7/28/9 9/29/9 33/30/9
f 4/31/10 27/32/10 20/33/10 18/34/10
f 33/35/7 9/36/7 11/37/7 35/38/7
f 9/22/11 10/21/11 12/39/11 11/40/11
f 14/41/12 16/42/12 18/34/12 20/33/12
f 11/37/13 12/43/13 15/44/13 13/45/13
f 25/46/14 2/47/14 16/48/14 14/49/14
f 35/38/15 11/37/15 13/45/15 37/50/15
f 25/46/16 39/13/16 17/16/16 2/47/16
f 2/51/17 17/52/17 19/53/17 4/54/17
f 23/55/8 21/56/8 22/12/8 24/11/8
f 17/57/18 1/58/18 21/56/18 23/55/18
f 19/59/19 17/60/19 23/61/19 24/62/19
f 1/2/20 3/1/20 22/63/20 21/64/20
f 4/31/21 19/65/21 40/66/21 27/32/21
f 2/51/22 4/54/22 18/67/22 16/68/22
f 15/44/23 38/69/23 37/50/23 13/45/23
f 10/70/24 34/71/24 36/72/24 12/73/24
f 12/74/25 36/75/25 38/76/25 15/77/25
f 8/78/26 32/79/26 34/71/26 10/70/26
f 6/80/4 30/81/4 32/79/4 8/78/4
f 1/82/27 28/83/27 30/84/27 6/85/27
f 19/86/7 3/1/7 26/17/7 40/87/7
f 43/88/28 45/89/28 46/90/28 41/91/28
f 67/92/22 60/93/22 54/94/22 65/95/22
f 43/96/29 62/97/29 64/98/29 59/99/29
f 79/100/4 57/101/4 41/102/4 68/103/4
f 66/104/5 69/105/5 45/89/5 43/88/5
f 47/106/30 49/107/30 50/108/30 48/109/30
f 69/105/7 71/110/7 47/111/7 45/89/7
f 45/112/31 47/106/31 48/109/31 46/113/31
f 71/114/9 73/115/9 49/116/9 47/117/9
f 44/118/10 58/119/10 60/120/10 67/121/10
f 73/122/7 75/123/7 51/124/7 49/125/7
f 49/107/32 51/126/32 52/127/32 50/108/32
f 54/128/12 60/120/12 58/119/12 56/129/12
f 51/124/33 53/130/33 55/131/33 52/132/33
f 65/133/14 54/134/14 56/135/14 42/136/14
f 75/123/34 77/137/34 53/130/34 51/124/34
f 65/133/16 42/136/16 57/101/16 79/100/16
f 42/138/35 44/139/35 59/140/35 57/141/35
f 63/142/31 64/98/31 62/97/31 61/143/31
f 57/144/36 63/142/36 61/143/36 41/145/36
f 59/146/37 64/147/37 63/148/37 57/149/37
f 41/91/38 61/150/38 62/151/38 43/88/38
f 44/118/21 67/121/21 80/152/21 59/153/21
f 42/138/2 56/154/2 58/155/2 44/139/2
f 55/131/39 53/130/39 77/137/39 78/156/39
f 50/157/40 52/158/40 76/159/40 74/160/40
f 52/161/41 55/162/41 78/163/41 76/164/41
f 48/165/42 50/157/42 74/160/42 72/166/42
f 46/167/4 48/165/4 72/166/4 70/168/4
f 41/169/27 46/170/27 70/171/27 68/172/27
f 59/173/7 80/174/7 66/104/7 43/88/7
